#!OML:ASF E:\acrobat2\Project_11_07_03\Capture day 1\Session 1\Acrobat.ASF
:FULLY-SPECIFIED
:DEGREES
671
root 11.9469 17.7484 34.0855 0.341659 0.449228 -3.49106
lowerback -4.67788 3.64059 3.13414
upperback 0.104469 4.71461 -1.16453
thorax 3.07749 2.40577 -2.59725
lowerneck 2.91837 -1.88887 -1.52817
upperneck 5.55458 -2.69034 3.77122
head 1.30972 -1.32532 1.42358
rclavicle 4.16205e-015 0
rhumerus -28.8189 4.06072 -78.5483
rradius 37.1053
rwrist 1.96635
rhand -2.66897 -45.1788
rfingers 7.12502
rthumb 23.0316 -73.8226
lclavicle 4.16205e-015 0
lhumerus -44.4889 -8.98844 90.7414
lradius 14.1592
lwrist 4.61322
lhand -4.12089 -6.64349
lfingers 7.12502
lthumb 21.6379 22.1675
rfemur 10.2863 0.843471 23.4732
rtibia 18.7639
rfoot -23.9611 -8.4492
rtoes -6.86196
lfemur -13.0436 -0.642347 -11.2191
ltibia 3.22255
lfoot -0.0231256 11.0358
ltoes 38.6807
672
root 11.9672 17.772 34.202 0.314012 0.182833 -3.21268
lowerback -4.46157 3.65083 2.85575
upperback -0.0739003 4.75643 -1.39757
thorax 2.77204 2.41838 -2.70023
lowerneck 2.97322 -1.80858 -1.5389
upperneck 5.67967 -2.58744 3.77709
head 1.33723 -1.27361 1.42821
rclavicle -2.32578e-014 1.66979e-014
rhumerus -29.4182 3.97483 -79.2527
rradius 36.4277
rwrist 2.43645
rhand -2.49914 -45.3469
rfingers 7.12502
rthumb 23.1946 -73.9703
lclavicle -2.32578e-014 1.66979e-014
lhumerus -44.241 -8.59056 90.1439
lradius 14.0169
lwrist 4.18475
lhand -4.55227 -6.7051
lfingers 7.12502
lthumb 21.2235 22.153
rfemur 9.95087 0.596745 22.7574
rtibia 20.0334
rfoot -23.1305 -7.80221
rtoes -6.65082
lfemur -12.5841 -0.32408 -11.6086
ltibia 3.41767
lfoot -0.166214 10.5271
ltoes 38.2806
673
root 11.9873 17.7994 34.3157 0.287907 -0.0814313 -2.91531
lowerback -4.23373 3.66661 2.55451
upperback -0.250618 4.80386 -1.63335
thorax 2.461 2.43407 -2.7938
lowerneck 3.02906 -1.72345 -1.58211
upperneck 5.7896 -2.47963 3.81723
head 1.3608 -1.21984 1.44949
rclavicle 1.98288e-014 -1.27222e-014
rhumerus -30.0284 3.80616 -79.9187
rradius 35.7363
rwrist 2.92503
rhand -2.24514 -45.5104
rfingers 7.12502
rthumb 23.4383 -74.1029
lclavicle 1.98288e-014 -1.27222e-014
lhumerus -43.9776 -8.23376 89.5647
lradius 13.9492
lwrist 3.73757
lhand -4.90669 -6.67633
lfingers 7.12502
lthumb 20.8831 22.2197
rfemur 9.51287 0.242774 21.9542
rtibia 21.4275
rfoot -22.1004 -7.13002
rtoes -6.22051
lfemur -12.0817 -0.0158274 -12.0113
ltibia 3.54053
lfoot -0.406537 10.0276
ltoes 38.3239
674
root 12.0073 17.8295 34.4271 0.273022 -0.360907 -2.59101
lowerback -4.04786 3.69214 2.21513
upperback -0.401957 4.86188 -1.86528
thorax 2.19711 2.45611 -2.85796
lowerneck 3.08191 -1.6388 -1.61922
upperneck 5.85128 -2.3697 3.82603
head 1.36877 -1.16569 1.45962
rclavicle -4.31611e-014 3.18055e-015
rhumerus -30.6074 3.56269 -80.526
rradius 35.0295
rwrist 3.44048
rhand -1.92474 -45.6305
rfingers 7.12502
rthumb 23.7456 -74.1835
lclavicle -4.31611e-014 3.18055e-015
lhumerus -43.6822 -7.93635 89.0373
lradius 13.9848
lwrist 3.3101
lhand -5.18413 -6.55965
lfingers 7.12502
lthumb 20.6165 22.3655
rfemur 8.96899 -0.179472 21.0616
rtibia 22.9158
rfoot -20.8738 -6.44751
rtoes -5.44382
lfemur -11.5407 0.3057 -12.4338
ltibia 3.55033
lfoot -0.668877 9.56962
ltoes 38.5949
675
root 12.0272 17.8605 34.5361 0.273624 -0.651659 -2.28636
lowerback -3.9281 3.72433 1.8839
upperback -0.514076 4.92458 -2.07917
thorax 2.01004 2.48238 -2.90212
lowerneck 3.11436 -1.55414 -1.61411
upperneck 5.85158 -2.25397 3.75919
head 1.35858 -1.10904 1.43795
rclavicle -5.56597e-015 -2.38542e-014
rhumerus -31.135 3.28052 -81.0817
rradius 34.3213
rwrist 3.96368
rhand -1.59065 -45.681
rfingers 7.12502
rthumb 24.066 -74.192
lclavicle -5.56597e-015 -2.38542e-014
lhumerus -43.3392 -7.69617 88.5654
lradius 14.129
lwrist 2.90804
lhand -5.37948 -6.38348
lfingers 7.12502
lthumb 20.4288 22.5619
rfemur 8.32145 -0.648978 20.1537
rtibia 24.4884
rfoot -19.4799 -5.77823
rtoes -4.27549
lfemur -10.9774 0.63413 -12.8166
ltibia 3.4419
lfoot -0.890334 9.18593
ltoes 39.0432
676
root 12.0477 17.8911 34.643 0.287657 -0.934888 -2.08593
lowerback -3.89472 3.75853 1.67117
upperback -0.564029 4.98268 -2.26138
thorax 1.94208 2.50944 -2.97163
lowerneck 3.08742 -1.47223 -1.55541
upperneck 5.78284 -2.13554 3.61449
head 1.3346 -1.05089 1.38165
rclavicle 1.49337e-014 -1.66979e-014
rhumerus -31.5797 2.99198 -81.6033
rradius 33.6351
rwrist 4.45754
rhand -1.24749 -45.65
rfingers 7.12502
rthumb 24.395 -74.117
lclavicle 1.49337e-014 -1.66979e-014
lhumerus -42.9006 -7.58596 88.1864
lradius 14.339
lwrist 2.61472
lhand -5.51776 -6.20112
lfingers 7.12502
lthumb 20.2959 22.7584
rfemur 7.59147 -1.14747 19.35
rtibia 26.1113
rfoot -17.9635 -5.15198
rtoes -2.80923
lfemur -10.4118 0.945024 -13.0673
ltibia 3.24898
lfoot -1.05737 8.87061
ltoes 39.54
677
root 12.0707 17.9198 34.7474 0.325273 -1.21199 -2.02669
lowerback -3.94548 3.79856 1.64883
upperback -0.554239 5.04006 -2.41283
thorax 1.99621 2.53947 -3.10709
lowerneck 2.97732 -1.39728 -1.44614
upperneck 5.65858 -2.02107 3.3997
head 1.30585 -0.994212 1.29391
rclavicle -4.51738e-014 2.38542e-014
rhumerus -31.9546 2.76307 -82.1174
rradius 33.0189
rwrist 4.86941
rhand -0.859571 -45.5787
rfingers 7.12502
rthumb 24.7668 -73.9951
lclavicle -4.51738e-014 2.38542e-014
lhumerus -42.33 -7.68244 87.9401
lradius 14.5402
lwrist 2.52939
lhand -5.63473 -6.07107
lfingers 7.12502
lthumb 20.1835 22.9004
rfemur 6.77607 -1.68001 18.6931
rtibia 27.7857
rfoot -16.3561 -4.5668
rtoes -1.32225
lfemur -9.87807 1.20089 -13.1612
ltibia 3.01339
lfoot -1.18131 8.63657
ltoes 39.7481
678
root 12.0963 17.9457 34.8488 0.379971 -1.47168 -2.07037
lowerback -4.02462 3.83727 1.76907
upperback -0.514466 5.08955 -2.53989
thorax 2.10701 2.56771 -3.294
lowerneck 2.79925 -1.32658 -1.29216
upperneck 5.51401 -1.90896 3.12558
head 1.28133 -0.938183 1.17975
rclavicle -6.28657e-015 7.15625e-015
rhumerus -32.3027 2.63749 -82.6373
rradius 32.4888
rwrist 5.19126
rhand -0.383501 -45.5214
rfingers 7.12502
rthumb 25.223 -73.8744
lclavicle -6.28657e-015 7.15625e-015
lhumerus -41.6587 -8.0081 87.8424
lradius 14.695
lwrist 2.69272
lhand -5.72892 -6.0054
lfingers 7.12502
lthumb 20.0929 22.9756
rfemur 5.88922 -2.24386 18.1451
rtibia 29.5128
rfoot -14.6771 -4.0435
rtoes 0.0225658
lfemur -9.38874 1.36951 -13.1549
ltibia 2.76745
lfoot -1.29327 8.48483
ltoes 39.549
679
root 12.1237 17.9682 34.9461 0.462206 -1.72249 -2.16312
lowerback -4.11512 3.87416 1.95571
upperback -0.462872 5.1334 -2.65041
thorax 2.24073 2.59438 -3.49999
lowerneck 2.56046 -1.25579 -1.11521
upperneck 5.37115 -1.79632 2.82905
head 1.26768 -0.881392 1.05506
rclavicle 6.22941e-014 -2.38542e-014
rhumerus -32.6212 2.60163 -83.1545
rradius 32.0201
rwrist 5.46342
rhand 0.221187 -45.5084
rfingers 7.12502
rthumb 25.8022 -73.7785
lclavicle 6.22941e-014 -2.38542e-014
lhumerus -40.9265 -8.57339 87.8988
lradius 14.8284
lwrist 3.10549
lhand -5.77844 -5.96414
lfingers 7.12502
lthumb 20.0453 23.0219
rfemur 4.91485 -2.80839 17.6593
rtibia 31.3005
rfoot -12.9642 -3.58943
rtoes 1.19623
lfemur -8.9757 1.46414 -13.1085
ltibia 2.55387
lfoot -1.42657 8.39165
ltoes 38.9975
680
root 12.1551 17.9867 35.0446 0.533105 -1.93258 -2.16933
lowerback -4.22819 3.89614 2.0881
upperback -0.393263 5.16014 -2.7793
thorax 2.40172 2.61307 -3.69381
lowerneck 2.27797 -1.17752 -0.935477
upperneck 5.25511 -1.67522 2.53347
head 1.27043 -0.820096 0.930926
rclavicle -2.23384e-014 -1.11319e-014
rhumerus -32.931 2.65665 -83.6654
rradius 31.6
rwrist 5.71081
rhand 0.962531 -45.5545
rfingers 7.12502
rthumb 26.512 -73.7195
lclavicle -2.23384e-014 -1.11319e-014
lhumerus -40.208 -9.33066 88.0785
lradius 15.0022
lwrist 3.70348
lhand -5.77289 -5.91454
lfingers 7.12502
lthumb 20.0507 23.0709
rfemur 3.96724 -3.46233 17.0306
rtibia 33.1003
rfoot -11.238 -3.11063
rtoes 2.04556
lfemur -8.56423 1.54984 -13.2351
ltibia 2.35547
lfoot -1.49576 8.27416
ltoes 38
